<svg width="80" height="80" viewBox="0 0 80 80" fill="none" xmlns="http://www.w3.org/2000/svg">
<path d="M32 5.33013C36.641 2.65063 42.359 2.65063 47 5.33013L66.208 16.4199C70.849 19.0994 73.708 24.0513 73.708 29.4103L73.708 51.5897C73.708 56.9487 70.849 61.9006 66.208 64.5801L47 75.6699C42.359 78.3494 36.641 78.3494 32 75.6699L12.792 64.5801C8.15098 61.9006 5.292 56.9487 5.292 51.5897L5.292 29.4103C5.292 24.0513 8.15098 19.0994 12.792 16.4199L32 5.33013Z" fill="white"/>
<path d="M29.8847 60.9999C29.1004 60.9999 28.4236 60.7152 27.8542 60.1458C27.2848 59.5764 27.0001 58.8996 27.0001 58.1153V21.8846C27.0001 21.1003 27.2848 20.4235 27.8542 19.8541C28.4236 19.2847 29.1004 19 29.8847 19H50.1153C50.8996 19 51.5765 19.2847 52.1459 19.8541C52.7153 20.4235 53 21.1003 53 21.8846V58.1153C53 58.8996 52.7153 59.5764 52.1459 60.1458C51.5765 60.7152 50.8996 61 50.1153 61H29.8847V60.9999ZM29.2693 53.3653V58.1153C29.2693 58.2691 29.3334 58.4102 29.4616 58.5384C29.5898 58.6666 29.7308 58.7307 29.8847 58.7307H50.1153C50.2692 58.7307 50.4102 58.6666 50.5385 58.5384C50.6667 58.4102 50.7308 58.2691 50.7308 58.1153V53.3653H29.2693ZM40.0091 57.4422C40.3979 57.4422 40.7276 57.3072 40.9981 57.0373C41.2686 56.7673 41.4039 56.4346 41.4039 56.0392C41.4039 55.6438 41.2656 55.3108 40.989 55.0403C40.7124 54.7698 40.3797 54.6345 39.9909 54.6345C39.6021 54.6345 39.2725 54.7728 39.002 55.0493C38.7314 55.3258 38.5962 55.6585 38.5962 56.0471C38.5962 56.449 38.7345 56.782 39.0111 57.0461C39.2876 57.3102 39.6203 57.4422 40.0091 57.4422ZM29.2693 51.0961H50.7308V25.673H29.2693V51.0961ZM29.2693 23.4039H50.7308V21.8846C50.7308 21.7308 50.6667 21.5897 50.5385 21.4615C50.4102 21.3333 50.2692 21.2692 50.1153 21.2692H29.8847C29.7308 21.2692 29.5898 21.3333 29.4616 21.4615C29.3334 21.5897 29.2693 21.7308 29.2693 21.8846V23.4039Z" fill="black"/>
</svg>
