<svg width="80" height="80" viewBox="0 0 80 80" fill="none" xmlns="http://www.w3.org/2000/svg">
<path d="M32 5.33013C36.641 2.65063 42.359 2.65063 47 5.33013L66.208 16.4199C70.849 19.0994 73.708 24.0513 73.708 29.4103L73.708 51.5897C73.708 56.9487 70.849 61.9006 66.208 64.5801L47 75.6699C42.359 78.3494 36.641 78.3494 32 75.6699L12.792 64.5801C8.15098 61.9006 5.292 56.9487 5.292 51.5897L5.292 29.4103C5.292 24.0513 8.15098 19.0994 12.792 16.4199L32 5.33013Z" fill="white"/>
<path d="M25.3346 57.4999C24.5475 57.4999 23.8699 57.2159 23.3019 56.648C22.734 56.08 22.45 55.4025 22.45 54.6153V37.8769C21.5295 37.141 20.9128 36.2217 20.6 35.1192C20.2872 34.0166 20.3077 32.9013 20.6615 31.7731L22.7154 25.1962C22.9821 24.3218 23.4295 23.6538 24.0577 23.1923C24.6859 22.7308 25.4269 22.5 26.2808 22.5H53.4884C54.3833 22.5 55.1615 22.7327 55.823 23.198C56.4846 23.6635 56.9423 24.3167 57.1961 25.1577L59.3384 31.7731C59.6923 32.9013 59.7044 34.023 59.375 35.1384C59.0455 36.2538 58.4205 37.1794 57.5 37.9153V54.6153C57.5 55.4025 57.216 56.08 56.648 56.648C56.0801 57.2159 55.4025 57.4999 54.6153 57.4999H25.3346ZM44.4615 36.8654C45.6077 36.8654 46.5269 36.5231 47.2192 35.8385C47.9115 35.1538 48.1974 34.3807 48.0769 33.5192L46.75 24.7692H41.1346V33.2884C41.1346 34.2448 41.4532 35.0801 42.0903 35.7942C42.7275 36.5083 43.518 36.8654 44.4615 36.8654ZM35.2077 36.8654C36.2436 36.8654 37.1122 36.5166 37.8135 35.8192C38.5148 35.1218 38.8654 34.2782 38.8654 33.2884V24.7692H33.2307L31.9038 33.5962C31.7961 34.3602 32.0615 35.0961 32.7 35.8038C33.3385 36.5115 34.1744 36.8654 35.2077 36.8654ZM26.1654 36.8654C27.0423 36.8654 27.8013 36.5647 28.4423 35.9635C29.0834 35.3622 29.4603 34.623 29.5731 33.7461L30.8923 24.7692H25.8539C25.6359 24.7692 25.4596 24.8172 25.325 24.9134C25.1904 25.0096 25.0974 25.1538 25.0461 25.3462L22.9 32.3C22.541 33.4102 22.6839 34.4487 23.3288 35.4154C23.9737 36.382 24.9192 36.8654 26.1654 36.8654ZM53.7846 36.8654C54.941 36.8654 55.8724 36.4032 56.5788 35.4788C57.2853 34.5544 57.4526 33.4948 57.0808 32.3L54.9154 25.3077C54.8641 25.1154 54.7712 24.9775 54.6365 24.8942C54.5019 24.8108 54.3256 24.7692 54.1076 24.7692H49.0884L50.4076 33.7461C50.5333 34.623 50.9134 35.3622 51.548 35.9635C52.1827 36.5647 52.9282 36.8654 53.7846 36.8654ZM25.3346 55.2308H54.6153C54.782 55.2308 54.9263 55.1731 55.0481 55.0577C55.1699 54.9423 55.2308 54.7948 55.2308 54.6153V38.9884C55.1487 39.0474 54.9635 39.0865 54.675 39.1057C54.3865 39.1249 54.0897 39.1346 53.7846 39.1346C52.9384 39.1346 52.15 38.9531 51.4192 38.5903C50.6884 38.2275 49.9756 37.6602 49.2807 36.8884C48.7602 37.5679 48.1064 38.1121 47.3192 38.5211C46.532 38.9301 45.6103 39.1346 44.5539 39.1346C43.6308 39.1346 42.8173 38.9737 42.1134 38.6519C41.4096 38.3301 40.7051 37.8166 40 37.1115C39.4231 37.7756 38.7384 38.2788 37.9461 38.6211C37.1538 38.9634 36.3192 39.1346 35.4423 39.1346C34.4859 39.1346 33.6077 38.9608 32.8077 38.6134C32.0077 38.266 31.3244 37.691 30.7577 36.8884C29.8423 37.7294 28.9981 38.3141 28.225 38.6423C27.4519 38.9705 26.7654 39.1346 26.1654 39.1346C25.8808 39.1346 25.6077 39.1249 25.3461 39.1057C25.0846 39.0865 24.8756 39.0474 24.7192 38.9884V54.6153C24.7192 54.7948 24.7801 54.9423 24.9019 55.0577C25.0237 55.1731 25.168 55.2308 25.3346 55.2308Z" fill="black"/>
</svg>
