<svg width="80" height="80" viewBox="0 0 80 80" fill="none" xmlns="http://www.w3.org/2000/svg">
<path d="M32 5.33013C36.641 2.65063 42.359 2.65063 47 5.33013L66.208 16.4199C70.849 19.0994 73.708 24.0513 73.708 29.4103L73.708 51.5897C73.708 56.9487 70.849 61.9006 66.208 64.5801L47 75.6699C42.359 78.3494 36.641 78.3494 32 75.6699L12.792 64.5801C8.15098 61.9006 5.292 56.9487 5.292 51.5897L5.292 29.4103C5.292 24.0513 8.15098 19.0994 12.792 16.4199L32 5.33013Z" fill="white"/>
<path d="M40 58.9999C37.3538 58.9999 34.875 58.5005 32.5634 57.5018C30.2519 56.5031 28.2378 55.1486 26.5212 53.4384C24.8045 51.7281 23.4551 49.7121 22.4731 47.3903C21.491 45.0685 21 42.5782 21 39.9192C21 37.273 21.491 34.7993 22.4731 32.4981C23.4551 30.1968 24.8045 28.191 26.5212 26.4808C28.2378 24.7705 30.2519 23.4295 32.5634 22.4577C34.875 21.4859 37.3538 21 40 21C42.6461 21 45.1249 21.4859 47.4365 22.4577C49.748 23.4295 51.7621 24.7705 53.4788 26.4808C55.1954 28.191 56.5448 30.1968 57.5268 32.4981C58.5089 34.7993 58.9999 37.273 58.9999 39.9192C58.9999 42.5782 58.5089 45.0685 57.5268 47.3903C56.5448 49.7121 55.1954 51.7281 53.4788 53.4384C51.7621 55.1486 49.748 56.5031 47.4365 57.5018C45.1249 58.5005 42.6461 58.9999 40 58.9999ZM40 56.8307C41.2436 55.4897 42.2666 54.0345 43.0692 52.4653C43.8718 50.8961 44.5295 49.0576 45.0423 46.9499H34.9884C35.4935 49.0268 36.1474 50.8621 36.95 52.4557C37.7525 54.0493 38.7692 55.5076 40 56.8307ZM36.827 56.423C35.8911 55.2076 35.0622 53.7929 34.3404 52.1788C33.6186 50.5647 33.0513 48.8217 32.6384 46.9499H24.6769C25.9564 49.5345 27.5641 51.5756 29.5 53.0731C31.4359 54.5705 33.8782 55.6871 36.827 56.423ZM43.223 56.3923C45.8409 55.8051 48.2076 54.6936 50.323 53.0577C52.4384 51.4218 54.1051 49.3858 55.323 46.9499H47.3922C46.8948 48.8268 46.2935 50.566 45.5884 52.1673C44.8832 53.7686 44.0948 55.1769 43.223 56.3923ZM23.9462 44.6808H32.2231C32.0974 43.7679 32.0167 42.9275 31.9808 42.1596C31.9449 41.3916 31.9269 40.6448 31.9269 39.9192C31.9269 39.1115 31.95 38.3474 31.9962 37.6269C32.0423 36.9064 32.1282 36.1269 32.2539 35.2884H23.9462C23.7 36.0628 23.5256 36.8115 23.4231 37.5346C23.3205 38.2577 23.2692 39.0525 23.2692 39.9192C23.2692 40.7987 23.3205 41.6153 23.4231 42.3692C23.5256 43.123 23.7 43.8936 23.9462 44.6808ZM34.5538 44.6808H45.4769C45.623 43.6731 45.7192 42.8154 45.7654 42.1077C45.8115 41.4 45.8346 40.6705 45.8346 39.9192C45.8346 39.2012 45.8115 38.5019 45.7654 37.8211C45.7192 37.1403 45.623 36.2961 45.4769 35.2884H34.5538C34.4076 36.2961 34.3115 37.1403 34.2653 37.8211C34.2192 38.5019 34.1961 39.2012 34.1961 39.9192C34.1961 40.6705 34.2192 41.4 34.2653 42.1077C34.3115 42.8154 34.4076 43.6731 34.5538 44.6808ZM47.7461 44.6808H56.0538C56.2999 43.8936 56.4743 43.123 56.5769 42.3692C56.6794 41.6153 56.7307 40.7987 56.7307 39.9192C56.7307 39.0525 56.6794 38.2577 56.5769 37.5346C56.4743 36.8115 56.2999 36.0628 56.0538 35.2884H47.7961C47.9089 36.391 47.9884 37.2891 48.0345 37.9827C48.0807 38.6762 48.1038 39.3217 48.1038 39.9192C48.1038 40.6653 48.0756 41.3987 48.0192 42.1192C47.9627 42.8397 47.8717 43.6936 47.7461 44.6808ZM47.3615 33.0192H55.323C54.1461 30.4628 52.516 28.3763 50.4326 26.7596C48.3493 25.1429 45.9294 24.0756 43.173 23.5577C44.1089 24.8166 44.9262 26.2301 45.6249 27.7981C46.3236 29.366 46.9025 31.1064 47.3615 33.0192ZM34.9884 33.0192H45.0923C44.6487 31.1372 43.9904 29.3615 43.1173 27.6923C42.2442 26.0231 41.2051 24.5359 40 23.2308C38.8692 24.2718 37.9147 25.5577 37.1365 27.0885C36.3583 28.6192 35.6422 30.5961 34.9884 33.0192ZM24.6769 33.0192H32.6692C33.0872 31.1679 33.6372 29.4667 34.3193 27.9154C35.0013 26.3641 35.8206 24.9217 36.777 23.5884C34.0205 24.1192 31.6192 25.1794 29.5731 26.7692C27.5269 28.3589 25.8948 30.4423 24.6769 33.0192Z" fill="black"/>
</svg>
